<?xml version="1.0" encoding="utf-8"?>
<!-- Generator: Adobe Illustrator 27.4.1, SVG Export Plug-In . SVG Version: 6.00 Build 0)  -->
<svg version="1.1" id="Layer_1" xmlns="http://www.w3.org/2000/svg" xmlns:xlink="http://www.w3.org/1999/xlink" x="0px" y="0px"
	 viewBox="0 0 72 72" style="enable-background:new 0 0 72 72;" xml:space="preserve">
<style type="text/css">
	.st0{fill:#495057;}
</style>
<g>
	<path class="st0" d="M69.01,47.92l-3.61-3.62l-0.83-1.65l-2.84-0.53l-2.89-2.7H57.4l-0.77-0.4l-1.13,0.4h-0.21
		c-0.31,0-0.8-0.41-1.47-1.22c-0.67-0.81-1.45-1.22-2.35-1.22c-0.65,0-1.19,0.04-1.6,0.13c-0.69-0.53-1.98-0.79-3.87-0.79l-1.6-1.38
		h-0.72v0.46l-1.08-0.86l-3.61-0.4v-0.92c-0.45,0.35-0.83,0.53-1.13,0.53c-0.34,0-0.95-0.37-1.83-1.12
		c-0.88-0.75-1.71-1.27-2.5-1.58l-1.29,0.53l-3.15-2.7h-2.42l-0.21-0.66c-1.62-0.79-2.6-1.34-2.94-1.65l-1.19-1.05l-1.6-0.53
		l-0.52-1.38l-1.08-0.66c-0.07-0.97-0.28-2.17-0.62-3.62v-0.13c0-0.17,0.14-0.35,0.41-0.53l2.68-2.44l1.03-1.91h1.39l2.42-2.44
		l1.65,0.53l6.55-3.1l2.48-0.26c0.45-0.7,0.93-1.05,1.44-1.05c0.38,0,0.64,0.04,0.77,0.13c0.41-0.4,1.74-0.66,3.97-0.79L44.3,6.6
		l3.56,1.25l3.2-0.53l1.5,1.45l0.93-1.45l0.72,0.92l2.22-0.4l0.12,0.18c0.27-0.61,0.67-1.18,1.1-1.71c0.95-1.19,2.24-1.96,3.62-2.3
		c-2.19-0.86-3.92-1.31-5.15-1.31l0.77-0.13c-0.58-0.44-1.72-0.66-3.4-0.66h-0.52c-1.07,0-1.77-0.46-2.11-1.38l-1.39,1.12v0.92
		l-0.31-0.79l-6.24,0.79h-0.62c-0.45,0-0.91,0.22-1.39,0.66V2.71c0-0.09-0.1-0.13-0.31-0.13l-1.24,0.13h-0.57
		c-0.21,0.79-0.65,1.19-1.34,1.19l-0.88-0.13l0.31,0.4c-0.17-0.17-0.52-0.26-1.03-0.26c-0.45,0-0.76,0.09-0.93,0.26l0.52,0.59
		c-2,0.62-3.8,0.92-5.42,0.92C29.73,6.64,29,7.12,27.79,7.12l-1.03-0.13l1.13,0.33l-3.87,1.71l-0.21,0.92l-0.46-0.92l-1.03,1.91
		c-0.24,0-0.45-0.18-0.62-0.53c-0.58,0.09-1.41,0.57-2.48,1.45c-0.31,1.27-0.79,2.09-1.44,2.44l-1.7,2.83l-0.41,4.02
		c0.48,0.75,1.19,2.55,2.11,5.4l1.7,2.31l0.72,2.17l1.13-0.4c1,1.49,3.18,2.26,6.55,2.31l1.5,2.24h1.19l0.21-0.66l0.72,1.38h1.7
		l1.24,1.19h1.91l2.99,1.91L41,38.49l1.19,1.71l1.5-0.79l0.62,1.05c0.45-0.17,1.12-0.26,2.01-0.26c1.41,0,2.6,0.51,3.56,1.52
		c2.2,1.05,3.9,1.58,5.11,1.58l4.64,2.44c5.4,2.86,8.1,5.34,8.1,7.45c0,0.62-0.45,1.78-1.34,3.49c0,0.7-0.4,1.05-1.19,1.05
		c-0.28,0-0.69,0.37-1.24,1.12l0.31,0.53l-0.41,0.53h-0.77c-1.1,0-1.65,0.42-1.65,1.25v0.26h-1.81v0.66l-0.52-0.26l-2.68,1.45
		l-0.72-0.13c-0.14,0-0.31,0.15-0.52,0.46c-2.27,0.09-3.47,0.22-3.61,0.4l0.41,0.13l-2.63,0.79l-3.25-0.53l-0.77,1.32l-3.77,1.38
		c-0.55-0.44-1.08-0.66-1.6-0.66c-0.55,0-1.05,0.22-1.5,0.66c-0.93-0.35-1.77-0.53-2.53-0.53c-0.86,0-1.6,0.26-2.22,0.79
		c-0.34-0.44-0.69-0.66-1.03-0.66c-0.62,0-1.41,0.26-2.37,0.79l0.46,0.53l-1.08-0.53h-1.6l-1.44-0.13l-0.21-0.79
		c-1.13-0.09-1.9-0.23-2.3-0.43c-0.4-0.2-0.73-0.3-1.01-0.3c-0.52,0-1,0.24-1.44,0.72v-0.46h-4.9l-0.31-0.66l-2.32-0.53l0.62-0.53
		l-2.84-0.26l0.21,0.79l-1.91,0.26c-0.96-0.79-1.65-1.23-2.06-1.32L6.9,63.6c-0.69-1.1-1.44-2.02-2.23-2.76
		c-0.6,0.25-1.24,0.38-1.89,0.4c0.46,0.95,0.73,1.99,0.8,3.05l1.83,0.62l3.71,3.36c0.27-0.17,0.48-0.26,0.62-0.26
		c0.31,0,1.05,0.28,2.22,0.82c1.17,0.55,2.41,0.82,3.71,0.82h1.13l0.57,0.79l1.75-0.92c1.24,1.14,2.23,1.71,2.99,1.71
		c0.41,0,0.98-0.22,1.7-0.66l2.42,0.53l5.06,0.26l0.72-0.79L33,71.38h3.35c0.24-0.44,0.53-0.66,0.88-0.66c0.21,0,0.41,0.13,0.62,0.4
		l1.13,0.26L41,70.19l2.89,0.26c0.65,0,1.7-0.4,3.15-1.19l3.3,0.4c0.1-0.26,0.91-0.44,2.42-0.53l1.34-0.59l0.88,0.72l1.91-2.17
		l2.22,0.26c0.79-0.53,1.41-1.16,1.86-1.91c1.51,0,2.75-0.62,3.71-1.85h0.31c0.65,0,1.08-0.29,1.29-0.86
		c1.24-0.66,2.29-1.75,3.15-3.26c0.86-1.52,1.29-2.62,1.29-3.33l-0.1-2.04C70.61,51.13,70.07,49.06,69.01,47.92z"/>
</g>
<path class="st0" d="M12,53.84c-1.32-0.71-2.11-2-2.36-3.42c-1.58-0.3-2.66-1.27-3.25-2.5l-1.9,8.45l9.78,1.29
	C12.9,56.86,12.14,55.39,12,53.84z"/>
<path class="st0" d="M12.6,46.24c2.33,0.43,3.58,2.34,3.77,4.36c2.51,1.35,3.1,4.82,1.75,7.16l42.54-28.36L49.87,16.46L10.3,42.85
	C11.59,43.56,12.35,44.85,12.6,46.24z"/>
<polygon class="st0" points="53.51,13.18 57.78,10.33 68.58,23.27 64.31,26.12 "/>
</svg>
